<?xml version="1.0" encoding="UTF-8" standalone="no"?>
<!-- Created with Inkscape (http://www.inkscape.org/) -->

<svg
   width="63.999996"
   height="63.999996"
   viewBox="0 0 16.933332 16.933332"
   version="1.1"
   id="svg1"
   xmlns="http://www.w3.org/2000/svg"
   xmlns:svg="http://www.w3.org/2000/svg">
  <defs
     id="defs1" />
  <g
     id="layer1"
     style="display:none">
    <path
       d="M 8.4666665,14.816666 A 2.1166666,2.1166666 0 0 1 6.3499999,12.7 2.1166666,2.1166666 0 0 1 8.4666665,10.583333 2.1166666,2.1166666 0 0 1 6.3499999,8.4666665 2.1166666,2.1166666 0 0 1 4.2333332,10.583333 2.1166666,2.1166666 0 0 1 2.1166666,8.4666665 6.3499999,6.3499999 0 0 0 8.4666665,14.816666 Z"
       style="fill:#ff5555;fill-opacity:0.78439;stroke-width:0.725591"
       id="path29" />
    <path
       d="M 10.583333,8.4666665 A 2.1166666,2.1166666 0 0 1 8.4666665,10.583333 2.1166666,2.1166666 0 0 1 10.583333,12.7 2.1166666,2.1166666 0 0 1 8.4666665,14.816666 6.3499999,6.3499999 0 0 0 14.816666,8.4666665 2.1166666,2.1166666 0 0 1 12.7,10.583333 2.1166666,2.1166666 0 0 1 10.583333,8.4666665 Z"
       style="fill:#ff5555;fill-opacity:0.78439;stroke-width:0.725591"
       id="path28" />
    <path
       d="M 8.4666665,2.1166666 A 6.3499999,6.3499999 0 0 0 2.1166666,8.4666665 2.1166666,2.1166666 0 0 1 4.2333332,6.3499999 2.1166666,2.1166666 0 0 1 6.3499999,8.4666665 2.1166666,2.1166666 0 0 1 8.4666665,6.3499999 2.1166666,2.1166666 0 0 1 6.3499999,4.2333332 2.1166666,2.1166666 0 0 1 8.4666665,2.1166666 Z"
       style="fill:#ff5555;fill-opacity:0.78439;stroke-width:0.725591"
       id="path27" />
    <path
       d="M 8.4666665,2.1166666 A 2.1166666,2.1166666 0 0 1 10.583333,4.2333332 2.1166666,2.1166666 0 0 1 8.4666665,6.3499999 2.1166666,2.1166666 0 0 1 10.583333,8.4666665 2.1166666,2.1166666 0 0 1 12.7,6.3499999 2.1166666,2.1166666 0 0 1 14.816666,8.4666665 6.3499999,6.3499999 0 0 0 8.4666665,2.1166666 Z"
       style="fill:#ff5555;fill-opacity:0.78439;stroke-width:0.725591"
       id="path26" />
  </g>
  <g
     id="g33"
     style="display:none">
    <path
       d="M 8.4666665,14.816666 A 2.1166666,2.1166666 0 0 1 6.3499999,12.7 2.1166666,2.1166666 0 0 1 8.4666665,10.583333 2.1166666,2.1166666 0 0 1 6.3499999,8.4666665 2.1166666,2.1166666 0 0 1 4.2333332,10.583333 2.1166666,2.1166666 0 0 1 2.1166666,8.4666665 6.3499999,6.3499999 0 0 0 8.4666665,14.816666 Z"
       style="fill:#0000ff;fill-opacity:0.78439;stroke-width:0.725591"
       id="path30" />
    <path
       d="M 10.583333,8.4666665 A 2.1166666,2.1166666 0 0 1 8.4666665,10.583333 2.1166666,2.1166666 0 0 1 10.583333,12.7 2.1166666,2.1166666 0 0 1 8.4666665,14.816666 6.3499999,6.3499999 0 0 0 14.816666,8.4666665 2.1166666,2.1166666 0 0 1 12.7,10.583333 2.1166666,2.1166666 0 0 1 10.583333,8.4666665 Z"
       style="fill:#ff5555;fill-opacity:0.78439;stroke-width:0.725591"
       id="path31" />
    <path
       d="M 8.4666665,2.1166666 A 6.3499999,6.3499999 0 0 0 2.1166666,8.4666665 2.1166666,2.1166666 0 0 1 4.2333332,6.3499999 2.1166666,2.1166666 0 0 1 6.3499999,8.4666665 2.1166666,2.1166666 0 0 1 8.4666665,6.3499999 2.1166666,2.1166666 0 0 1 6.3499999,4.2333332 2.1166666,2.1166666 0 0 1 8.4666665,2.1166666 Z"
       style="fill:#ff5555;fill-opacity:0.78439;stroke-width:0.725591"
       id="path32" />
    <path
       d="M 8.4666665,2.1166666 A 2.1166666,2.1166666 0 0 1 10.583333,4.2333332 2.1166666,2.1166666 0 0 1 8.4666665,6.3499999 2.1166666,2.1166666 0 0 1 10.583333,8.4666665 2.1166666,2.1166666 0 0 1 12.7,6.3499999 2.1166666,2.1166666 0 0 1 14.816666,8.4666665 6.3499999,6.3499999 0 0 0 8.4666665,2.1166666 Z"
       style="fill:#0000ff;fill-opacity:0.78439;stroke-width:0.725591"
       id="path33" />
  </g>
  <g
     id="g37"
     style="display:inline">
    <path
       d="M 8.4666665,14.816666 A 2.1166666,2.1166666 0 0 1 6.3499999,12.7 2.1166666,2.1166666 0 0 1 8.4666665,10.583333 2.1166666,2.1166666 0 0 1 6.3499999,8.4666665 2.1166666,2.1166666 0 0 1 4.2333332,10.583333 2.1166666,2.1166666 0 0 1 2.1166666,8.4666665 6.3499999,6.3499999 0 0 0 8.4666665,14.816666 Z"
       style="fill:#0000ff;fill-opacity:0.78439;stroke-width:0.725591"
       id="path34" />
    <path
       d="M 10.583333,8.4666665 A 2.1166666,2.1166666 0 0 1 8.4666665,10.583333 2.1166666,2.1166666 0 0 1 10.583333,12.7 2.1166666,2.1166666 0 0 1 8.4666665,14.816666 6.3499999,6.3499999 0 0 0 14.816666,8.4666665 2.1166666,2.1166666 0 0 1 12.7,10.583333 2.1166666,2.1166666 0 0 1 10.583333,8.4666665 Z"
       style="fill:#ff5555;fill-opacity:0.78439;stroke-width:0.725591"
       id="path35" />
    <path
       d="M 8.4666665,2.1166666 A 6.3499999,6.3499999 0 0 0 2.1166666,8.4666665 2.1166666,2.1166666 0 0 1 4.2333332,6.3499999 2.1166666,2.1166666 0 0 1 6.3499999,8.4666665 2.1166666,2.1166666 0 0 1 8.4666665,6.3499999 2.1166666,2.1166666 0 0 1 6.3499999,4.2333332 2.1166666,2.1166666 0 0 1 8.4666665,2.1166666 Z"
       style="fill:#ff5555;fill-opacity:0.78439;stroke-width:0.725591"
       id="path36" />
    <path
       d="M 8.4666665,2.1166666 A 2.1166666,2.1166666 0 0 1 10.583333,4.2333332 2.1166666,2.1166666 0 0 1 8.4666665,6.3499999 2.1166666,2.1166666 0 0 1 10.583333,8.4666665 2.1166666,2.1166666 0 0 1 12.7,6.3499999 2.1166666,2.1166666 0 0 1 14.816666,8.4666665 6.3499999,6.3499999 0 0 0 8.4666665,2.1166666 Z"
       style="fill:#0000ff;fill-opacity:0.78439;stroke-width:0.725591"
       id="path37" />
  </g>
</svg>
